<?xml version="1.0"?><svg width="533.3333333333333" height="533.3333333333333" xmlns="http://www.w3.org/2000/svg" xmlns:xlink="http://www.w3.org/1999/xlink">
 <title>book</title>
 <defs>
  <linearGradient id="linearGradient650">
   <stop id="stop651" offset="0" stop-color="#000"/>
   <stop id="stop652" offset="1" stop-color="#fff"/>
  </linearGradient>
  <linearGradient gradientUnits="objectBoundingBox" id="linearGradient653" spreadMethod="repeat" x1="0.508001" x2="0.508" xlink:href="#linearGradient650" y1="1.076923" y2="1.038462"/>
  <linearGradient gradientUnits="objectBoundingBox" id="linearGradient654" spreadMethod="repeat" x1="1.222227" x2="1.166668" xlink:href="#linearGradient650" y1="0.460938" y2="0.460938"/>
 </defs>
 <g>
  <title>Layer 1</title>
  <g externalResourcesRequired="false" id="g845">
   <path d="m126.582237,38.765701l299.050514,1.582298l2.374023,386.867607l-303.006714,1.582001l1.582199,-390.031906l-0.000023,0z" id="path645" stroke-linejoin="round" stroke-width="10" stroke="#000000" fill-rule="evenodd" fill="#bfbfbf"/>
   <path d="m128.955994,38.765701c-10.284996,-1.582302 -58.544594,4.746899 -58.544594,37.183502c8.702499,31.645798 63.291603,-10.284706 64.082603,-20.569603c0.791,-10.284801 -5.53801,-17.404999 -5.53801,-16.613899z" id="path646" stroke-linejoin="round" stroke-width="10" stroke="#000000" fill-rule="evenodd" fill="#12242b"/>
   <path d="m71.202599,64.873299c-12.658298,4.746803 -11.8671,379.746696 -7.1203,390.0317c4.746803,10.285004 3.955704,10.285004 3.955704,10.285004l3.164497,-390.82299l0.000099,-9.493706l0,-0.000008z" id="path647" stroke-linejoin="round" stroke-width="10" stroke="#000000" fill-rule="evenodd" fill="#122466"/>
   <path d="m125.791,42.721401l281.646011,3.9557c0,0 -15.031036,7.120197 -30.064056,11.8671c-11.075989,6.329098 -25.315979,18.9874 -25.315979,18.196201l-275.316483,-2.373405c0,0 3.955696,-11.867195 19.778496,-20.569698c17.405014,-10.284798 28.481003,-10.284798 29.272003,-11.075897l0.000008,0z" id="path648" stroke-linejoin="round" stroke-width="10" stroke="#000000" fill-rule="evenodd" fill="url(#linearGradient653)"/>
   <path d="m408.227997,45.88591l0,380.599289c-0.790985,0.806213 -15.822998,0 -27.690002,8.064148c-11.075989,4.83728 -22.942993,24.996643 -26.898987,30.641144l-0.791016,-389.46946c0,0 21.361023,-19.352451 27.690002,-20.158863c6.32901,-0.806309 28.481995,-9.676167 27.690002,-9.676277l0,0.000019z" id="path649" stroke-linejoin="round" stroke-width="9.90521" stroke="#000000" fill-rule="evenodd" fill="url(#linearGradient654)"/>
   <path d="m71.202499,75.158096l299.050491,1.582306l2.374023,386.867599l-303.006737,1.582001l1.582199,-390.031906l0.000023,0z" id="path644" stroke-linejoin="round" stroke-width="10" stroke="#000000" fill-rule="evenodd" fill="#bfbfbf"/>
   <path d="m167.721497,458.860809c0,0 184.921722,0.614563 194.415405,-5.714539c9.493713,-6.329102 0.204895,-253.779175 0.204895,-253.779175c0,0 31.645599,264.240509 -194.6203,259.493713z" id="path767" stroke-linejoin="round" stroke-width="10" fill-rule="evenodd" fill-opacity="0.498"/>
  </g>
 </g>
</svg>