<?xml version="1.0"?><svg width="533.333" height="533.333" xmlns="http://www.w3.org/2000/svg" xmlns:xlink="http://www.w3.org/1999/xlink">
 <defs>
  <linearGradient id="linearGradient650">
   <stop offset="0" stop-color="#000" id="stop651"/>
   <stop offset="1" stop-color="#fff" id="stop652"/>
  </linearGradient>
  <linearGradient xlink:href="#linearGradient650" y2="1.03846" x2="0.508" y1="1.07692" x1="0.508001" spreadMethod="repeat" gradientUnits="objectBoundingBox" id="linearGradient653"/>
  <linearGradient xlink:href="#linearGradient650" y2="0.460938" x2="1.16667" y1="0.460938" x1="1.22223" spreadMethod="repeat" gradientUnits="objectBoundingBox" id="linearGradient654"/>
 </defs>
 <g>
  <title>Layer 1</title>
  <g id="g845">
   <path d="m126.582001,38.765701l299.050995,1.582298l2.373993,386.868004l-303.006989,1.582001l1.582001,-390.032303l0,0z" stroke-width="10" stroke-linejoin="round" stroke="#000000" fill-rule="evenodd" fill="#ff00ff" id="path645"/>
   <path d="m128.955994,38.765701c-10.284996,-1.582302 -58.544594,4.746899 -58.544594,37.183502c8.702499,31.645798 63.291603,-10.284706 64.082603,-20.569603c0.791,-10.284801 -5.53801,-17.404999 -5.53801,-16.613899z" stroke-width="10" stroke-linejoin="round" stroke="#000000" fill-rule="evenodd" fill="#12242b" id="path646"/>
   <path d="m71.202599,64.873299c-12.658298,4.746803 -11.8671,379.746696 -7.1203,390.0317c4.746803,10.285004 3.955704,10.285004 3.955704,10.285004l3.164497,-390.823006l0.000099,-9.493698l0,0z" stroke-width="10" stroke-linejoin="round" stroke="#000000" fill-rule="evenodd" fill="#122466" id="path647"/>
   <path d="m125.791,42.721401l281.646011,3.9557c0,0 -15.031006,7.120197 -30.064026,11.8671c-11.075989,6.329098 -25.315979,18.9874 -25.315979,18.196201l-275.316505,-2.373405c0,0 3.955696,-11.867195 19.778496,-20.569698c17.405006,-10.284798 28.481003,-10.284798 29.272003,-11.075897l0,0z" stroke-width="10" stroke-linejoin="round" stroke="#000000" fill-rule="evenodd" fill="url(#linearGradient653)" id="path648"/>
   <path d="m408.227997,45.885899l0,380.599087c-0.790985,0.806 -15.822998,0 -27.690002,8.064026c-11.075989,4.837982 -22.942993,24.996979 -26.898987,30.640991l-0.791016,-389.469002c0,0 21.361023,-19.352402 27.690002,-20.158802c6.32901,-0.806297 28.481995,-9.676197 27.690002,-9.6763l0,0z" stroke-width="9.90521" stroke-linejoin="round" stroke="#000000" fill-rule="evenodd" fill="url(#linearGradient654)" id="path649"/>
   <path d="m71.202499,75.158096l299.050491,1.582306l2.374023,386.867599l-303.006714,1.582001l1.582199,-390.031906l0,0z" stroke-width="10" stroke-linejoin="round" stroke="#000000" fill-rule="evenodd" fill="#ff00ff" id="path644"/>
   <path d="m167.720993,458.860992c0,0 184.922012,0.614014 194.416,-5.714996c9.494019,-6.32901 0.205017,-253.778992 0.205017,-253.778992c0,0 31.644989,264.240997 -194.621017,259.493988z" stroke-width="10" stroke-linejoin="round" fill-rule="evenodd" fill-opacity="0.498" id="path767"/>
  </g>
 </g>
</svg>