<?xml version="1.0"?><svg width="533.3333333333333" height="533.3333333333333" xmlns="http://www.w3.org/2000/svg" xmlns:xlink="http://www.w3.org/1999/xlink">
 <defs>
  <linearGradient id="linearGradient650">
   <stop stop-color="#000" offset="0" id="stop651"/>
   <stop stop-color="#fff" offset="1" id="stop652"/>
  </linearGradient>
  <linearGradient y2="1.038462" y1="1.076923" xlink:href="#linearGradient650" x2="0.508" x1="0.508001" spreadMethod="repeat" id="linearGradient653" gradientUnits="objectBoundingBox"/>
  <linearGradient y2="0.460938" y1="0.460938" xlink:href="#linearGradient650" x2="1.166668" x1="1.222227" spreadMethod="repeat" id="linearGradient654" gradientUnits="objectBoundingBox"/>
 </defs>
 <g>
  <title>Layer 1</title>
  <g id="g845">
   <path fill="#ff0000" fill-rule="evenodd" stroke="#000000" stroke-width="10" stroke-linejoin="round" id="path645" d="m126.582245,38.765697l299.050507,1.582306l2.374023,386.867603l-303.006729,1.582001l1.582199,-390.03191z"/>
   <path fill="#12242b" fill-rule="evenodd" stroke="#000000" stroke-width="10" stroke-linejoin="round" id="path646" d="m128.955994,38.765701c-10.284996,-1.582302 -58.544594,4.746899 -58.544594,37.183502c8.702499,31.645798 63.291603,-10.284706 64.082603,-20.569603c0.791,-10.284801 -5.53801,-17.404999 -5.53801,-16.613899z"/>
   <path fill="#122466" fill-rule="evenodd" stroke="#000000" stroke-width="10" stroke-linejoin="round" id="path647" d="m71.202599,64.873299c-1.608963,4.746803 -1.5084,379.746696 -0.905045,390.0317c0.603355,10.285004 0.5028,10.285004 0.5028,10.285004l0.402229,-390.823006l0.000015,-9.493698z"/>
   <path fill="url(#linearGradient653)" fill-rule="evenodd" stroke="#000000" stroke-width="10" stroke-linejoin="round" id="path648" d="m122.3843,35.721401l285.052711,4.768806c0,0 -15.21283,8.583778 -30.427673,14.306419c-11.209961,7.630066 -25.622192,22.890324 -25.622192,21.936489l-278.646645,-2.861267c0,0 4.00354,-14.306534 20.017731,-24.797863c17.615532,-12.398872 28.8255,-12.398872 29.626068,-13.352585z"/>
   <path fill="url(#linearGradient654)" fill-rule="evenodd" stroke="#000000" stroke-width="9.90521" stroke-linejoin="round" id="path649" d="m408.227997,45.885914l0,380.599285c-0.790985,0.806244 -15.822998,0 -27.690002,8.064178c-11.075989,4.83728 -22.942993,24.996643 -26.898987,30.641144l-0.791016,-389.469475c0,0 21.361023,-19.352444 27.690002,-20.158855c6.32901,-0.806316 28.481995,-9.67617 27.690002,-9.676277z"/>
   <path fill="#ff0000" fill-rule="evenodd" stroke="#000000" stroke-width="10" stroke-linejoin="round" id="path644" d="m71.202499,75.158096l299.050491,1.582306l2.374023,386.867599l-303.006714,1.582001l1.582199,-390.031906z"/>
   <path fill-opacity="0.498" fill-rule="evenodd" stroke-width="10" stroke-linejoin="round" id="path767" d="m167.721497,458.860809c0,0 184.921722,0.614563 194.415405,-5.714539c9.493713,-6.329102 0.204895,-253.779175 0.204895,-253.779175c0,0 31.645599,264.240509 -194.6203,259.493713z"/>
  </g>
 </g>
</svg>